<svg xmlns="http://www.w3.org/2000/svg" width="512" height="512" viewBox="0 0 512 512">
  <defs>
    <linearGradient id="bg" x1="0" y1="0" x2="1" y2="1">
      <stop offset="0" stop-color="#001a22"/>
      <stop offset="1" stop-color="#002c3a"/>
    </linearGradient>
    <linearGradient id="holo" x1="0" y1="0" x2="0" y2="1">
      <stop offset="0" stop-color="#00f6ff" stop-opacity=".95"/>
      <stop offset=".55" stop-color="#00b8ff" stop-opacity=".75"/>
      <stop offset="1" stop-color="#00f6ff" stop-opacity=".55"/>
    </linearGradient>
    <filter id="glow">
      <feGaussianBlur stdDeviation="6" result="b"/>
      <feColorMatrix in="b" type="matrix" values="
        0 0 0 0 0
        0 0 0 0 0.9
        0 0 0 0 1
        0 0 0 .9 0" result="c"/>
      <feMerge>
        <feMergeNode in="c"/>
        <feMergeNode in="SourceGraphic"/>
      </feMerge>
    </filter>
    <pattern id="scan" width="10" height="10" patternUnits="userSpaceOnUse">
      <rect width="10" height="10" fill="none"/>
      <rect y="7" width="10" height="1" fill="#bfffff" opacity=".22"/>
    </pattern>
  </defs>

  <rect width="512" height="512" rx="44" fill="url(#bg)"/>
  <rect width="512" height="512" rx="44" fill="url(#scan)" opacity=".55"/>

  <!-- silhouette -->
  <g filter="url(#glow)" opacity=".98">
    <!-- hat -->
    <path d="M152 164c30-36 70-56 104-56s74 20 104 56c-35 10-76 16-104 16s-69-6-104-16z" fill="url(#holo)"/>
    <rect x="178" y="104" width="156" height="48" rx="18" fill="url(#holo)" opacity=".9"/>
    <!-- head -->
    <circle cx="256" cy="206" r="48" fill="url(#holo)"/>
    <!-- body robe -->
    <path d="M156 424c8-122 62-196 100-214 10 14 26 22 44 22s34-8 44-22c38 18 92 92 100 214H156z" fill="url(#holo)" opacity=".88"/>
    <!-- belt -->
    <rect x="168" y="332" width="176" height="18" rx="9" fill="#bfffff" opacity=".25"/>
    <!-- shoulder bag -->
    <path d="M292 246c34 28 54 62 60 102 4 22-6 44-26 56-18 10-40 8-56-6-18-16-26-42-22-74 6-46 18-66 44-78z" fill="url(#holo)" opacity=".65"/>
    <!-- outline base -->
    <ellipse cx="256" cy="448" rx="150" ry="18" fill="#00e5ff" opacity=".20"/>
  </g>

  <!-- label -->
  <g font-family="system-ui, -apple-system, Segoe UI, Roboto, Arial" text-anchor="middle">
    <text x="256" y="486" font-size="20" fill="#bfffff" opacity=".9">Empire Merchant</text>
  </g>
</svg>
