<svg xmlns="http://www.w3.org/2000/svg" width="512" height="512" viewBox="0 0 512 512">
  <defs>
    <linearGradient id="bg" x1="0" y1="0" x2="1" y2="1">
      <stop offset="0" stop-color="#001017"/>
      <stop offset="1" stop-color="#002738"/>
    </linearGradient>
    <linearGradient id="holo" x1="0" y1="0" x2="0" y2="1">
      <stop offset="0" stop-color="#00f6ff" stop-opacity=".95"/>
      <stop offset=".55" stop-color="#00b8ff" stop-opacity=".78"/>
      <stop offset="1" stop-color="#00f6ff" stop-opacity=".55"/>
    </linearGradient>
    <filter id="glow">
      <feGaussianBlur stdDeviation="7" result="b"/>
      <feColorMatrix in="b" type="matrix" values="
        0 0 0 0 0
        0 0 0 0 0.85
        0 0 0 0 1
        0 0 0 .95 0" result="c"/>
      <feMerge>
        <feMergeNode in="c"/>
        <feMergeNode in="SourceGraphic"/>
      </feMerge>
    </filter>
    <pattern id="scan" width="10" height="10" patternUnits="userSpaceOnUse">
      <rect width="10" height="10" fill="none"/>
      <rect y="6" width="10" height="1" fill="#bfffff" opacity=".22"/>
    </pattern>
  </defs>

  <rect width="512" height="512" rx="44" fill="url(#bg)"/>
  <rect width="512" height="512" rx="44" fill="url(#scan)" opacity=".55"/>

  <g filter="url(#glow)">
    <!-- helmet -->
    <path d="M176 188c6-52 44-88 80-88s74 36 80 88c-22 14-52 22-80 22s-58-8-80-22z" fill="url(#holo)"/>
    <rect x="178" y="176" width="156" height="34" rx="17" fill="#bfffff" opacity=".20"/>
    <!-- head -->
    <circle cx="256" cy="232" r="46" fill="url(#holo)"/>
    <!-- shoulders -->
    <path d="M128 322c30-56 74-86 128-86s98 30 128 86c-44 22-90 34-128 34s-84-12-128-34z" fill="url(#holo)" opacity=".75"/>
    <!-- body -->
    <path d="M156 432c10-92 56-156 100-182 10 14 26 22 44 22s34-8 44-22c44 26 90 90 100 182H156z" fill="url(#holo)" opacity=".88"/>
    <!-- medal -->
    <circle cx="316" cy="344" r="14" fill="#bfffff" opacity=".28"/>
    <rect x="308" y="320" width="16" height="18" rx="4" fill="#bfffff" opacity=".18"/>
    <!-- base -->
    <ellipse cx="256" cy="452" rx="160" ry="18" fill="#00e5ff" opacity=".18"/>
  </g>

  <g font-family="system-ui, -apple-system, Segoe UI, Roboto, Arial" text-anchor="middle">
    <text x="256" y="486" font-size="20" fill="#bfffff" opacity=".9">WWII Soldier</text>
  </g>
</svg>
