<svg xmlns="http://www.w3.org/2000/svg" width="512" height="512" viewBox="0 0 512 512">
  <defs>
    <linearGradient id="bg" x1="0" y1="0" x2="1" y2="1">
      <stop offset="0" stop-color="#001018"/>
      <stop offset="1" stop-color="#002b40"/>
    </linearGradient>
    <linearGradient id="holo" x1="0" y1="0" x2="0" y2="1">
      <stop offset="0" stop-color="#00f6ff" stop-opacity=".95"/>
      <stop offset=".5" stop-color="#00b8ff" stop-opacity=".78"/>
      <stop offset="1" stop-color="#00f6ff" stop-opacity=".58"/>
    </linearGradient>
    <filter id="glow">
      <feGaussianBlur stdDeviation="7" result="b"/>
      <feColorMatrix in="b" type="matrix" values="
        0 0 0 0 0
        0 0 0 0 0.88
        0 0 0 0 1
        0 0 0 .95 0" result="c"/>
      <feMerge>
        <feMergeNode in="c"/>
        <feMergeNode in="SourceGraphic"/>
      </feMerge>
    </filter>
    <pattern id="scan" width="10" height="10" patternUnits="userSpaceOnUse">
      <rect width="10" height="10" fill="none"/>
      <rect y="6" width="10" height="1" fill="#bfffff" opacity=".22"/>
    </pattern>
  </defs>

  <rect width="512" height="512" rx="44" fill="url(#bg)"/>
  <rect width="512" height="512" rx="44" fill="url(#scan)" opacity=".55"/>

  <g filter="url(#glow)">
    <!-- cap -->
    <path d="M160 184c16-54 56-88 96-88s80 34 96 88c-26 14-60 22-96 22s-70-8-96-22z" fill="url(#holo)"/>
    <rect x="176" y="164" width="160" height="36" rx="18" fill="#bfffff" opacity=".20"/>
    <!-- star -->
    <path d="M256 150l8 16 18 3-13 12 3 18-16-9-16 9 3-18-13-12 18-3z" fill="#bfffff" opacity=".35"/>
    <!-- head -->
    <circle cx="256" cy="232" r="46" fill="url(#holo)"/>
    <!-- coat -->
    <path d="M146 438c12-96 60-164 104-192 10 14 26 22 46 22s36-8 46-22c44 28 92 96 104 192H146z" fill="url(#holo)" opacity=".88"/>
    <!-- epaulettes -->
    <path d="M156 314c22-32 56-52 100-60l-8 34c-32 8-58 20-80 40z" fill="#bfffff" opacity=".18"/>
    <path d="M356 314c-22-32-56-52-100-60l8 34c32 8 58 20 80 40z" fill="#bfffff" opacity=".18"/>
    <!-- base -->
    <ellipse cx="256" cy="452" rx="165" ry="18" fill="#00e5ff" opacity=".18"/>
  </g>

  <g font-family="system-ui, -apple-system, Segoe UI, Roboto, Arial" text-anchor="middle">
    <text x="256" y="486" font-size="20" fill="#bfffff" opacity=".9">Commander</text>
  </g>
</svg>
